<svg xmlns="http://www.w3.org/2000/svg" width="142" height="142" viewBox="0 0 142 142">
  <g id="Ellipse_2" data-name="Ellipse 2" fill="none" stroke="#ffffff" stroke-width="2">
    <circle cx="71" cy="71" r="71" stroke="none"/>
    <circle cx="71" cy="71" r="70" fill="none"/>
  </g>
  <path id="Path_61" data-name="Path 61" d="M28,14a6,6,0,1,1,6-6A6.018,6.018,0,0,1,28,14ZM43,2h6V3.2c-.3,6.6-2.4,11.7-6.9,15.3A16.677,16.677,0,0,1,37,21.2V62H31V44H25V62H19V26.3a4.884,4.884,0,0,0-1.8.9c-2.7,2.1-4.17,4.8-4.2,9.3V38H7V36.5a17.976,17.976,0,0,1,6.33-14.37A23.908,23.908,0,0,1,28,17c6,0,8.04-1.38,10.44-3.18C41.44,11.42,43,8,43,3.5ZM4,44h9V62H4Z" transform="translate(44.5 39)" fill="#ffffff"/>
</svg>
