<svg xmlns="http://www.w3.org/2000/svg" width="142" height="142" viewBox="0 0 142 142">
  <g id="Ellipse_2" data-name="Ellipse 2" fill="none" stroke="#ffffff" stroke-width="2">
    <circle cx="71" cy="71" r="71" stroke="none"/>
    <circle cx="71" cy="71" r="70" fill="none"/>
  </g>
  <path id="Path_61" data-name="Path 61" d="M59.909,5H8.364A7.362,7.362,0,0,0,1,12.364V45.5H8.364a11.045,11.045,0,0,0,22.091,0H50.7a11.045,11.045,0,0,0,22.091,0H82V27.091ZM8.364,27.091V12.364H23.091V27.091ZM19.409,51.023A5.523,5.523,0,1,1,24.932,45.5,5.515,5.515,0,0,1,19.409,51.023ZM45.182,27.091H30.455V12.364H45.182ZM61.75,51.023A5.523,5.523,0,1,1,67.273,45.5,5.515,5.515,0,0,1,61.75,51.023Zm-9.2-23.932V12.364h3.682L70.955,27.091Z" transform="translate(29 40.227)" fill="#ffffff"/>
</svg>